<mxfile host="app.diagrams.net" agent="Mozilla/5.0 (Windows NT 10.0; Win64; x64) AppleWebKit/537.36 (KHTML, like Gecko) Chrome/131.0.0.0 Safari/537.36" version="24.8.6">
  <diagram name="Flow" id="-zpew-Aw3DYJspAUg8Z5">
    <mxGraphModel dx="1434" dy="772" grid="1" gridSize="10" guides="1" tooltips="1" connect="1" arrows="1" fold="1" page="0" pageScale="1" pageWidth="850" pageHeight="1100" math="0" shadow="0">
      <root>
        <mxCell id="0" />
        <mxCell id="1" parent="0" />
        <mxCell id="NOwtwK6I9fc_mx1hrkZQ-35" style="edgeStyle=orthogonalEdgeStyle;rounded=0;orthogonalLoop=1;jettySize=auto;html=1;exitX=1;exitY=0.5;exitDx=0;exitDy=0;entryX=0;entryY=0.5;entryDx=0;entryDy=0;" parent="1" source="NOwtwK6I9fc_mx1hrkZQ-2" target="NOwtwK6I9fc_mx1hrkZQ-12" edge="1">
          <mxGeometry relative="1" as="geometry" />
        </mxCell>
        <mxCell id="NOwtwK6I9fc_mx1hrkZQ-2" value="" style="shape=image;html=1;verticalAlign=top;verticalLabelPosition=bottom;labelBackgroundColor=#ffffff;imageAspect=0;aspect=fixed;image=https://cdn2.iconfinder.com/data/icons/social-media-2285/512/1_Slack_colored_svg-128.png" parent="1" vertex="1">
          <mxGeometry x="360" y="185.95" width="88" height="88" as="geometry" />
        </mxCell>
        <mxCell id="NOwtwK6I9fc_mx1hrkZQ-12" value="" style="shape=image;verticalLabelPosition=bottom;labelBackgroundColor=default;verticalAlign=top;aspect=fixed;imageAspect=0;image=https://upload.wikimedia.org/wikipedia/commons/thumb/c/c3/Python-logo-notext.svg/1200px-Python-logo-notext.svg.png;clipPath=inset(0% 7.14% 13% 0%);" parent="1" vertex="1">
          <mxGeometry x="536.01" y="194.95" width="67.99" height="70" as="geometry" />
        </mxCell>
        <mxCell id="NOwtwK6I9fc_mx1hrkZQ-13" value="" style="image;aspect=fixed;html=1;points=[];align=center;fontSize=12;image=img/lib/azure2/databases/Azure_Database_PostgreSQL_Server.svg;" parent="1" vertex="1">
          <mxGeometry x="700" y="194.95" width="60" height="80" as="geometry" />
        </mxCell>
        <mxCell id="NOwtwK6I9fc_mx1hrkZQ-29" style="edgeStyle=orthogonalEdgeStyle;rounded=0;orthogonalLoop=1;jettySize=auto;html=1;entryX=0;entryY=0.5;entryDx=0;entryDy=0;" parent="1" source="NOwtwK6I9fc_mx1hrkZQ-17" target="NOwtwK6I9fc_mx1hrkZQ-16" edge="1">
          <mxGeometry relative="1" as="geometry" />
        </mxCell>
        <mxCell id="NOwtwK6I9fc_mx1hrkZQ-17" value="User" style="shape=umlActor;verticalLabelPosition=bottom;verticalAlign=top;html=1;outlineConnect=0;" parent="1" vertex="1">
          <mxGeometry x="50" y="200" width="30" height="60" as="geometry" />
        </mxCell>
        <mxCell id="NOwtwK6I9fc_mx1hrkZQ-18" value="" style="group;fontSize=14;" parent="1" vertex="1" connectable="0">
          <mxGeometry x="150" y="175" width="110" height="122" as="geometry" />
        </mxCell>
        <mxCell id="NOwtwK6I9fc_mx1hrkZQ-36" value="" style="group" parent="NOwtwK6I9fc_mx1hrkZQ-18" vertex="1" connectable="0">
          <mxGeometry y="-30" width="109.89312977099236" height="139.89312977099235" as="geometry" />
        </mxCell>
        <mxCell id="NOwtwK6I9fc_mx1hrkZQ-16" value="" style="shape=image;verticalLabelPosition=bottom;labelBackgroundColor=default;verticalAlign=top;aspect=fixed;imageAspect=0;image=https://cdn-icons-png.flaticon.com/512/2851/2851468.png;" parent="NOwtwK6I9fc_mx1hrkZQ-36" vertex="1">
          <mxGeometry y="30" width="109.89312977099236" height="109.89312977099236" as="geometry" />
        </mxCell>
        <mxCell id="NOwtwK6I9fc_mx1hrkZQ-32" value="&lt;b&gt;&lt;font style=&quot;font-size: 14px;&quot;&gt;Purchase&lt;/font&gt;&lt;/b&gt;" style="text;html=1;align=center;verticalAlign=middle;whiteSpace=wrap;rounded=0;" parent="NOwtwK6I9fc_mx1hrkZQ-36" vertex="1">
          <mxGeometry x="24.94999999999999" width="60" height="30" as="geometry" />
        </mxCell>
        <mxCell id="NOwtwK6I9fc_mx1hrkZQ-14" value="" style="shape=image;html=1;verticalAlign=top;verticalLabelPosition=bottom;labelBackgroundColor=#ffffff;imageAspect=0;aspect=fixed;image=https://cdn4.iconfinder.com/data/icons/success-filloutline/64/pay-credit_card-expenditure-bill-payment_method-banking-128.png" parent="NOwtwK6I9fc_mx1hrkZQ-18" vertex="1">
          <mxGeometry x="45.67796610169491" y="57.74045801526717" width="64.25954198473282" height="64.25954198473282" as="geometry" />
        </mxCell>
        <mxCell id="NOwtwK6I9fc_mx1hrkZQ-21" value="&lt;b&gt;&lt;font style=&quot;font-size: 14px;&quot;&gt;ETL&lt;/font&gt;&lt;/b&gt;" style="text;html=1;align=center;verticalAlign=middle;whiteSpace=wrap;rounded=0;" parent="1" vertex="1">
          <mxGeometry x="520" y="129.95" width="100" height="40" as="geometry" />
        </mxCell>
        <mxCell id="NOwtwK6I9fc_mx1hrkZQ-26" style="edgeStyle=orthogonalEdgeStyle;rounded=0;orthogonalLoop=1;jettySize=auto;html=1;exitX=1;exitY=0.5;exitDx=0;exitDy=0;entryX=-0.033;entryY=0.438;entryDx=0;entryDy=0;entryPerimeter=0;" parent="1" source="NOwtwK6I9fc_mx1hrkZQ-12" target="NOwtwK6I9fc_mx1hrkZQ-13" edge="1">
          <mxGeometry relative="1" as="geometry" />
        </mxCell>
        <mxCell id="NOwtwK6I9fc_mx1hrkZQ-27" value="&lt;b&gt;&lt;font style=&quot;font-size: 14px;&quot;&gt;Storage&lt;/font&gt;&lt;/b&gt;" style="text;html=1;align=center;verticalAlign=middle;whiteSpace=wrap;rounded=0;" parent="1" vertex="1">
          <mxGeometry x="680" y="129.95" width="100" height="40" as="geometry" />
        </mxCell>
        <mxCell id="NOwtwK6I9fc_mx1hrkZQ-31" style="edgeStyle=orthogonalEdgeStyle;rounded=0;orthogonalLoop=1;jettySize=auto;html=1;exitX=1;exitY=0.5;exitDx=0;exitDy=0;entryX=0;entryY=0.5;entryDx=0;entryDy=0;" parent="1" source="NOwtwK6I9fc_mx1hrkZQ-16" target="NOwtwK6I9fc_mx1hrkZQ-2" edge="1">
          <mxGeometry relative="1" as="geometry" />
        </mxCell>
        <mxCell id="NOwtwK6I9fc_mx1hrkZQ-37" value="&lt;b style=&quot;font-size: 14px;&quot;&gt;Upload photo&lt;/b&gt;" style="text;html=1;align=center;verticalAlign=middle;whiteSpace=wrap;rounded=0;fontSize=14;" parent="1" vertex="1">
          <mxGeometry x="354" y="145" width="100" height="30" as="geometry" />
        </mxCell>
        <mxCell id="43WRgSRWm3zvv4cxU-se-1" value="" style="sketch=0;outlineConnect=0;fontColor=#232F3E;gradientColor=none;fillColor=#232F3D;strokeColor=none;dashed=0;verticalLabelPosition=bottom;verticalAlign=top;align=center;html=1;fontSize=12;fontStyle=0;aspect=fixed;pointerEvents=1;shape=mxgraph.aws4.camera2;" vertex="1" parent="1">
          <mxGeometry x="280" y="175" width="44" height="34.97" as="geometry" />
        </mxCell>
      </root>
    </mxGraphModel>
  </diagram>
</mxfile>
